<mxfile host="ac.draw.io" modified="2023-06-15T13:28:39.969Z" agent="Mozilla/5.0 (X11; Linux x86_64; rv:109.0) Gecko/20100101 Firefox/114.0" etag="sQHFYZolJlM6X4Jy1SFS" version="21.4.0" type="embed">
  <diagram id="ZMtK4XZIfAlvVhyy08Ix" name="Page-1">
    <mxGraphModel dx="1434" dy="1885" grid="1" gridSize="10" guides="1" tooltips="1" connect="1" arrows="1" fold="1" page="1" pageScale="1" pageWidth="850" pageHeight="1100" math="0" shadow="0">
      <root>
        <mxCell id="0" />
        <mxCell id="1" parent="0" />
        <mxCell id="npFX3f-mWCA9Xx_PFYXD-1" style="edgeStyle=orthogonalEdgeStyle;rounded=0;orthogonalLoop=1;jettySize=auto;html=1;exitX=0.5;exitY=0;exitDx=0;exitDy=0;endArrow=none;endFill=0;startArrow=classic;startFill=1;entryX=0.5;entryY=1;entryDx=0;entryDy=0;entryPerimeter=0;" parent="1" source="npFX3f-mWCA9Xx_PFYXD-4" target="npFX3f-mWCA9Xx_PFYXD-46" edge="1">
          <mxGeometry relative="1" as="geometry">
            <mxPoint x="400" y="80" as="targetPoint" />
          </mxGeometry>
        </mxCell>
        <mxCell id="npFX3f-mWCA9Xx_PFYXD-2" style="edgeStyle=orthogonalEdgeStyle;rounded=0;orthogonalLoop=1;jettySize=auto;html=1;entryX=0.75;entryY=1;entryDx=0;entryDy=0;startArrow=classic;startFill=1;endArrow=none;endFill=0;exitX=0.25;exitY=1;exitDx=0;exitDy=0;" parent="1" source="npFX3f-mWCA9Xx_PFYXD-4" target="npFX3f-mWCA9Xx_PFYXD-7" edge="1">
          <mxGeometry relative="1" as="geometry" />
        </mxCell>
        <mxCell id="npFX3f-mWCA9Xx_PFYXD-3" value="req" style="edgeStyle=orthogonalEdgeStyle;rounded=0;orthogonalLoop=1;jettySize=auto;html=1;exitX=0.5;exitY=1;exitDx=0;exitDy=0;entryX=0.5;entryY=0;entryDx=0;entryDy=0;startArrow=none;startFill=0;endArrow=classic;endFill=1;" parent="1" source="npFX3f-mWCA9Xx_PFYXD-4" target="npFX3f-mWCA9Xx_PFYXD-28" edge="1">
          <mxGeometry relative="1" as="geometry" />
        </mxCell>
        <mxCell id="npFX3f-mWCA9Xx_PFYXD-4" value="&lt;div&gt;cache&lt;/div&gt;&lt;div&gt;controller&lt;br&gt;&lt;/div&gt;" style="whiteSpace=wrap;html=1;aspect=fixed;fillColor=#f5f5f5;strokeColor=#666666;fontColor=#333333;" parent="1" vertex="1">
          <mxGeometry x="360" y="120" width="80" height="80" as="geometry" />
        </mxCell>
        <mxCell id="npFX3f-mWCA9Xx_PFYXD-5" value="req" style="edgeStyle=orthogonalEdgeStyle;rounded=0;orthogonalLoop=1;jettySize=auto;html=1;exitX=0.5;exitY=1;exitDx=0;exitDy=0;entryX=0;entryY=0.5;entryDx=0;entryDy=0;startArrow=none;startFill=0;endArrow=classic;endFill=1;" parent="1" source="npFX3f-mWCA9Xx_PFYXD-7" target="npFX3f-mWCA9Xx_PFYXD-28" edge="1">
          <mxGeometry relative="1" as="geometry" />
        </mxCell>
        <mxCell id="npFX3f-mWCA9Xx_PFYXD-6" value="" style="edgeStyle=orthogonalEdgeStyle;rounded=0;orthogonalLoop=1;jettySize=auto;html=1;exitX=0.5;exitY=0;exitDx=0;exitDy=0;startArrow=classic;startFill=1;endArrow=none;endFill=0;entryX=0.5;entryY=1;entryDx=0;entryDy=0;" parent="1" source="npFX3f-mWCA9Xx_PFYXD-7" target="npFX3f-mWCA9Xx_PFYXD-53" edge="1">
          <mxGeometry relative="1" as="geometry">
            <mxPoint x="160" y="80" as="targetPoint" />
          </mxGeometry>
        </mxCell>
        <mxCell id="tKqqhwmGQDGYIwVs_86B-1" style="edgeStyle=orthogonalEdgeStyle;rounded=0;orthogonalLoop=1;jettySize=auto;html=1;exitX=0.75;exitY=1;exitDx=0;exitDy=0;entryX=0.25;entryY=1;entryDx=0;entryDy=0;" parent="1" source="npFX3f-mWCA9Xx_PFYXD-7" target="npFX3f-mWCA9Xx_PFYXD-55" edge="1">
          <mxGeometry relative="1" as="geometry" />
        </mxCell>
        <mxCell id="npFX3f-mWCA9Xx_PFYXD-7" value="&lt;div&gt;miss&lt;/div&gt;&lt;div&gt;handler&lt;br&gt;&lt;/div&gt;" style="whiteSpace=wrap;html=1;aspect=fixed;fillColor=#d5e8d4;strokeColor=#82b366;" parent="1" vertex="1">
          <mxGeometry x="120" y="120" width="80" height="80" as="geometry" />
        </mxCell>
        <mxCell id="npFX3f-mWCA9Xx_PFYXD-8" style="edgeStyle=orthogonalEdgeStyle;rounded=0;orthogonalLoop=1;jettySize=auto;html=1;exitX=0.5;exitY=0;exitDx=0;exitDy=0;endArrow=none;endFill=0;startArrow=classic;startFill=1;entryX=0.5;entryY=1;entryDx=0;entryDy=0;" parent="1" source="npFX3f-mWCA9Xx_PFYXD-11" target="npFX3f-mWCA9Xx_PFYXD-47" edge="1">
          <mxGeometry relative="1" as="geometry">
            <mxPoint x="520" y="80" as="targetPoint" />
          </mxGeometry>
        </mxCell>
        <mxCell id="npFX3f-mWCA9Xx_PFYXD-9" style="edgeStyle=orthogonalEdgeStyle;rounded=0;orthogonalLoop=1;jettySize=auto;html=1;entryX=0.75;entryY=1;entryDx=0;entryDy=0;startArrow=classic;startFill=1;endArrow=none;endFill=0;exitX=0.25;exitY=1;exitDx=0;exitDy=0;" parent="1" source="npFX3f-mWCA9Xx_PFYXD-11" target="npFX3f-mWCA9Xx_PFYXD-7" edge="1">
          <mxGeometry relative="1" as="geometry">
            <Array as="points">
              <mxPoint x="500" y="220" />
              <mxPoint x="180" y="220" />
            </Array>
          </mxGeometry>
        </mxCell>
        <mxCell id="npFX3f-mWCA9Xx_PFYXD-10" value="req" style="edgeStyle=orthogonalEdgeStyle;rounded=0;orthogonalLoop=1;jettySize=auto;html=1;exitX=0.5;exitY=1;exitDx=0;exitDy=0;entryX=0.75;entryY=0;entryDx=0;entryDy=0;startArrow=none;startFill=0;endArrow=classic;endFill=1;" parent="1" source="npFX3f-mWCA9Xx_PFYXD-11" target="npFX3f-mWCA9Xx_PFYXD-28" edge="1">
          <mxGeometry relative="1" as="geometry" />
        </mxCell>
        <mxCell id="npFX3f-mWCA9Xx_PFYXD-11" value="&lt;div&gt;cache&lt;/div&gt;&lt;div&gt;controller&lt;br&gt;&lt;/div&gt;" style="whiteSpace=wrap;html=1;aspect=fixed;fillColor=#f5f5f5;strokeColor=#666666;fontColor=#333333;" parent="1" vertex="1">
          <mxGeometry x="480" y="120" width="80" height="80" as="geometry" />
        </mxCell>
        <mxCell id="npFX3f-mWCA9Xx_PFYXD-12" style="edgeStyle=orthogonalEdgeStyle;rounded=0;orthogonalLoop=1;jettySize=auto;html=1;exitX=0.5;exitY=0;exitDx=0;exitDy=0;endArrow=none;endFill=0;startArrow=classic;startFill=1;entryX=0.5;entryY=1;entryDx=0;entryDy=0;" parent="1" source="npFX3f-mWCA9Xx_PFYXD-19" target="npFX3f-mWCA9Xx_PFYXD-48" edge="1">
          <mxGeometry relative="1" as="geometry">
            <mxPoint x="640" y="80" as="targetPoint" />
          </mxGeometry>
        </mxCell>
        <mxCell id="npFX3f-mWCA9Xx_PFYXD-15" style="edgeStyle=orthogonalEdgeStyle;rounded=0;orthogonalLoop=1;jettySize=auto;html=1;exitX=0.5;exitY=1;exitDx=0;exitDy=0;startArrow=none;startFill=0;endArrow=classic;endFill=1;entryX=1;entryY=0.5;entryDx=0;entryDy=0;" parent="1" source="npFX3f-mWCA9Xx_PFYXD-19" target="npFX3f-mWCA9Xx_PFYXD-28" edge="1">
          <mxGeometry relative="1" as="geometry">
            <mxPoint x="640" y="250" as="targetPoint" />
          </mxGeometry>
        </mxCell>
        <mxCell id="npFX3f-mWCA9Xx_PFYXD-16" value="req" style="edgeLabel;html=1;align=center;verticalAlign=middle;resizable=0;points=[];" parent="npFX3f-mWCA9Xx_PFYXD-15" vertex="1" connectable="0">
          <mxGeometry x="-0.1789" y="-1" relative="1" as="geometry">
            <mxPoint x="1" y="-17" as="offset" />
          </mxGeometry>
        </mxCell>
        <mxCell id="npFX3f-mWCA9Xx_PFYXD-17" style="edgeStyle=orthogonalEdgeStyle;rounded=0;orthogonalLoop=1;jettySize=auto;html=1;exitX=0;exitY=0.5;exitDx=0;exitDy=0;entryX=1;entryY=0.5;entryDx=0;entryDy=0;" parent="1" source="npFX3f-mWCA9Xx_PFYXD-19" target="npFX3f-mWCA9Xx_PFYXD-7" edge="1">
          <mxGeometry relative="1" as="geometry">
            <mxPoint x="200" y="160" as="targetPoint" />
            <Array as="points" />
          </mxGeometry>
        </mxCell>
        <mxCell id="npFX3f-mWCA9Xx_PFYXD-18" value="&lt;div&gt;miss_req&lt;/div&gt;" style="edgeLabel;html=1;align=center;verticalAlign=middle;resizable=0;points=[];" parent="npFX3f-mWCA9Xx_PFYXD-17" connectable="0" vertex="1">
          <mxGeometry x="0.6667" y="-1" relative="1" as="geometry">
            <mxPoint x="-37" y="1" as="offset" />
          </mxGeometry>
        </mxCell>
        <mxCell id="SOgFPl3rtw29Z5ovVsgr-1" style="edgeStyle=orthogonalEdgeStyle;rounded=0;orthogonalLoop=1;jettySize=auto;html=1;exitX=0;exitY=0.75;exitDx=0;exitDy=0;entryX=1;entryY=0.75;entryDx=0;entryDy=0;" parent="1" source="npFX3f-mWCA9Xx_PFYXD-19" target="npFX3f-mWCA9Xx_PFYXD-7" edge="1">
          <mxGeometry relative="1" as="geometry" />
        </mxCell>
        <mxCell id="SOgFPl3rtw29Z5ovVsgr-2" value="unique" style="edgeLabel;html=1;align=center;verticalAlign=middle;resizable=0;points=[];" parent="SOgFPl3rtw29Z5ovVsgr-1" connectable="0" vertex="1">
          <mxGeometry x="0.865" y="-1" relative="1" as="geometry">
            <mxPoint x="3" as="offset" />
          </mxGeometry>
        </mxCell>
        <mxCell id="npFX3f-mWCA9Xx_PFYXD-19" value="&lt;div&gt;cache&lt;/div&gt;&lt;div&gt;controller&lt;br&gt;&lt;/div&gt;" style="whiteSpace=wrap;html=1;aspect=fixed;fillColor=#f5f5f5;strokeColor=#666666;fontColor=#333333;" parent="1" vertex="1">
          <mxGeometry x="600" y="120" width="80" height="80" as="geometry" />
        </mxCell>
        <mxCell id="npFX3f-mWCA9Xx_PFYXD-20" style="edgeStyle=orthogonalEdgeStyle;rounded=0;orthogonalLoop=1;jettySize=auto;html=1;exitX=0.5;exitY=1;exitDx=0;exitDy=0;startArrow=none;startFill=0;endArrow=classic;endFill=1;" parent="1" source="npFX3f-mWCA9Xx_PFYXD-28" target="npFX3f-mWCA9Xx_PFYXD-37" edge="1">
          <mxGeometry relative="1" as="geometry" />
        </mxCell>
        <mxCell id="npFX3f-mWCA9Xx_PFYXD-21" style="edgeStyle=orthogonalEdgeStyle;rounded=0;orthogonalLoop=1;jettySize=auto;html=1;exitX=0.5;exitY=1;exitDx=0;exitDy=0;entryX=0.5;entryY=0;entryDx=0;entryDy=0;startArrow=none;startFill=0;endArrow=classic;endFill=1;" parent="1" source="npFX3f-mWCA9Xx_PFYXD-28" target="npFX3f-mWCA9Xx_PFYXD-39" edge="1">
          <mxGeometry relative="1" as="geometry" />
        </mxCell>
        <mxCell id="npFX3f-mWCA9Xx_PFYXD-22" style="edgeStyle=orthogonalEdgeStyle;rounded=0;orthogonalLoop=1;jettySize=auto;html=1;exitX=0.5;exitY=1;exitDx=0;exitDy=0;entryX=0.5;entryY=0;entryDx=0;entryDy=0;startArrow=none;startFill=0;endArrow=classic;endFill=1;" parent="1" source="npFX3f-mWCA9Xx_PFYXD-28" target="npFX3f-mWCA9Xx_PFYXD-41" edge="1">
          <mxGeometry relative="1" as="geometry" />
        </mxCell>
        <mxCell id="npFX3f-mWCA9Xx_PFYXD-23" style="edgeStyle=orthogonalEdgeStyle;rounded=0;orthogonalLoop=1;jettySize=auto;html=1;exitX=0.5;exitY=1;exitDx=0;exitDy=0;startArrow=none;startFill=0;endArrow=classic;endFill=1;" parent="1" source="npFX3f-mWCA9Xx_PFYXD-28" target="npFX3f-mWCA9Xx_PFYXD-43" edge="1">
          <mxGeometry relative="1" as="geometry" />
        </mxCell>
        <mxCell id="npFX3f-mWCA9Xx_PFYXD-24" style="edgeStyle=orthogonalEdgeStyle;rounded=0;orthogonalLoop=1;jettySize=auto;html=1;exitX=0.5;exitY=1;exitDx=0;exitDy=0;startArrow=none;startFill=0;endArrow=classic;endFill=1;" parent="1" source="npFX3f-mWCA9Xx_PFYXD-28" target="npFX3f-mWCA9Xx_PFYXD-29" edge="1">
          <mxGeometry relative="1" as="geometry" />
        </mxCell>
        <mxCell id="npFX3f-mWCA9Xx_PFYXD-25" style="edgeStyle=orthogonalEdgeStyle;rounded=0;orthogonalLoop=1;jettySize=auto;html=1;exitX=0.5;exitY=1;exitDx=0;exitDy=0;startArrow=none;startFill=0;endArrow=classic;endFill=1;" parent="1" source="npFX3f-mWCA9Xx_PFYXD-28" target="npFX3f-mWCA9Xx_PFYXD-31" edge="1">
          <mxGeometry relative="1" as="geometry" />
        </mxCell>
        <mxCell id="npFX3f-mWCA9Xx_PFYXD-26" style="edgeStyle=orthogonalEdgeStyle;rounded=0;orthogonalLoop=1;jettySize=auto;html=1;exitX=0.5;exitY=1;exitDx=0;exitDy=0;startArrow=none;startFill=0;endArrow=classic;endFill=1;" parent="1" source="npFX3f-mWCA9Xx_PFYXD-28" target="npFX3f-mWCA9Xx_PFYXD-33" edge="1">
          <mxGeometry relative="1" as="geometry" />
        </mxCell>
        <mxCell id="npFX3f-mWCA9Xx_PFYXD-27" style="edgeStyle=orthogonalEdgeStyle;rounded=0;orthogonalLoop=1;jettySize=auto;html=1;exitX=0.5;exitY=1;exitDx=0;exitDy=0;entryX=0.5;entryY=0;entryDx=0;entryDy=0;startArrow=none;startFill=0;endArrow=classic;endFill=1;" parent="1" source="npFX3f-mWCA9Xx_PFYXD-28" target="npFX3f-mWCA9Xx_PFYXD-35" edge="1">
          <mxGeometry relative="1" as="geometry" />
        </mxCell>
        <mxCell id="npFX3f-mWCA9Xx_PFYXD-28" value="tag_cmp" style="rounded=0;whiteSpace=wrap;html=1;" parent="1" vertex="1">
          <mxGeometry x="200" y="280" width="400" height="40" as="geometry" />
        </mxCell>
        <mxCell id="npFX3f-mWCA9Xx_PFYXD-29" value="data" style="rounded=0;whiteSpace=wrap;html=1;" parent="1" vertex="1">
          <mxGeometry x="400" y="400" width="80" height="20" as="geometry" />
        </mxCell>
        <mxCell id="npFX3f-mWCA9Xx_PFYXD-30" value="tag" style="rounded=0;whiteSpace=wrap;html=1;" parent="1" vertex="1">
          <mxGeometry x="400" y="420" width="80" height="20" as="geometry" />
        </mxCell>
        <mxCell id="npFX3f-mWCA9Xx_PFYXD-31" value="data" style="rounded=0;whiteSpace=wrap;html=1;" parent="1" vertex="1">
          <mxGeometry x="480" y="400" width="80" height="20" as="geometry" />
        </mxCell>
        <mxCell id="npFX3f-mWCA9Xx_PFYXD-32" value="tag" style="rounded=0;whiteSpace=wrap;html=1;" parent="1" vertex="1">
          <mxGeometry x="480" y="420" width="80" height="20" as="geometry" />
        </mxCell>
        <mxCell id="npFX3f-mWCA9Xx_PFYXD-33" value="data" style="rounded=0;whiteSpace=wrap;html=1;" parent="1" vertex="1">
          <mxGeometry x="560" y="400" width="80" height="20" as="geometry" />
        </mxCell>
        <mxCell id="npFX3f-mWCA9Xx_PFYXD-34" value="tag" style="rounded=0;whiteSpace=wrap;html=1;" parent="1" vertex="1">
          <mxGeometry x="560" y="420" width="80" height="20" as="geometry" />
        </mxCell>
        <mxCell id="npFX3f-mWCA9Xx_PFYXD-35" value="data" style="rounded=0;whiteSpace=wrap;html=1;" parent="1" vertex="1">
          <mxGeometry x="640" y="400" width="80" height="20" as="geometry" />
        </mxCell>
        <mxCell id="npFX3f-mWCA9Xx_PFYXD-36" value="tag" style="rounded=0;whiteSpace=wrap;html=1;" parent="1" vertex="1">
          <mxGeometry x="640" y="420" width="80" height="20" as="geometry" />
        </mxCell>
        <mxCell id="npFX3f-mWCA9Xx_PFYXD-37" value="data" style="rounded=0;whiteSpace=wrap;html=1;" parent="1" vertex="1">
          <mxGeometry x="80" y="400" width="80" height="20" as="geometry" />
        </mxCell>
        <mxCell id="npFX3f-mWCA9Xx_PFYXD-38" value="tag" style="rounded=0;whiteSpace=wrap;html=1;" parent="1" vertex="1">
          <mxGeometry x="80" y="420" width="80" height="20" as="geometry" />
        </mxCell>
        <mxCell id="npFX3f-mWCA9Xx_PFYXD-39" value="data" style="rounded=0;whiteSpace=wrap;html=1;" parent="1" vertex="1">
          <mxGeometry x="160" y="400" width="80" height="20" as="geometry" />
        </mxCell>
        <mxCell id="npFX3f-mWCA9Xx_PFYXD-40" value="tag" style="rounded=0;whiteSpace=wrap;html=1;" parent="1" vertex="1">
          <mxGeometry x="160" y="420" width="80" height="20" as="geometry" />
        </mxCell>
        <mxCell id="npFX3f-mWCA9Xx_PFYXD-41" value="data" style="rounded=0;whiteSpace=wrap;html=1;" parent="1" vertex="1">
          <mxGeometry x="240" y="400" width="80" height="20" as="geometry" />
        </mxCell>
        <mxCell id="npFX3f-mWCA9Xx_PFYXD-42" value="tag" style="rounded=0;whiteSpace=wrap;html=1;" parent="1" vertex="1">
          <mxGeometry x="240" y="420" width="80" height="20" as="geometry" />
        </mxCell>
        <mxCell id="npFX3f-mWCA9Xx_PFYXD-43" value="data" style="rounded=0;whiteSpace=wrap;html=1;" parent="1" vertex="1">
          <mxGeometry x="320" y="400" width="80" height="20" as="geometry" />
        </mxCell>
        <mxCell id="npFX3f-mWCA9Xx_PFYXD-44" value="tag" style="rounded=0;whiteSpace=wrap;html=1;" parent="1" vertex="1">
          <mxGeometry x="320" y="420" width="80" height="20" as="geometry" />
        </mxCell>
        <mxCell id="npFX3f-mWCA9Xx_PFYXD-45" value="AXI" style="shape=flexArrow;endArrow=classic;startArrow=classic;html=1;rounded=0;entryX=0;entryY=0.5;entryDx=0;entryDy=0;fillColor=#d5e8d4;strokeColor=#82b366;" parent="1" target="npFX3f-mWCA9Xx_PFYXD-7" edge="1">
          <mxGeometry width="100" height="100" relative="1" as="geometry">
            <mxPoint x="30" y="160" as="sourcePoint" />
            <mxPoint x="470" y="360" as="targetPoint" />
          </mxGeometry>
        </mxCell>
        <mxCell id="npFX3f-mWCA9Xx_PFYXD-46" value="PTW" style="text;html=1;strokeColor=none;fillColor=none;align=center;verticalAlign=middle;whiteSpace=wrap;rounded=0;" parent="1" vertex="1">
          <mxGeometry x="370" y="50" width="60" height="30" as="geometry" />
        </mxCell>
        <mxCell id="npFX3f-mWCA9Xx_PFYXD-47" value="load&lt;br&gt;unit" style="text;html=1;strokeColor=none;fillColor=none;align=center;verticalAlign=middle;whiteSpace=wrap;rounded=0;" parent="1" vertex="1">
          <mxGeometry x="490" y="50" width="60" height="30" as="geometry" />
        </mxCell>
        <mxCell id="npFX3f-mWCA9Xx_PFYXD-48" value="&lt;div&gt;store&lt;/div&gt;&lt;div&gt;unit&lt;br&gt;&lt;/div&gt;" style="text;html=1;strokeColor=none;fillColor=none;align=center;verticalAlign=middle;whiteSpace=wrap;rounded=0;" parent="1" vertex="1">
          <mxGeometry x="610" y="50" width="60" height="30" as="geometry" />
        </mxCell>
        <mxCell id="npFX3f-mWCA9Xx_PFYXD-49" value="" style="endArrow=classic;html=1;rounded=0;dashed=1;" parent="1" edge="1">
          <mxGeometry width="50" height="50" relative="1" as="geometry">
            <mxPoint x="680" y="260" as="sourcePoint" />
            <mxPoint x="120" y="260" as="targetPoint" />
          </mxGeometry>
        </mxCell>
        <mxCell id="npFX3f-mWCA9Xx_PFYXD-50" value="priority" style="edgeLabel;html=1;align=center;verticalAlign=middle;resizable=0;points=[];" parent="npFX3f-mWCA9Xx_PFYXD-49" vertex="1" connectable="0">
          <mxGeometry x="-0.2692" y="3" relative="1" as="geometry">
            <mxPoint x="211" y="7" as="offset" />
          </mxGeometry>
        </mxCell>
        <mxCell id="npFX3f-mWCA9Xx_PFYXD-51" value="&lt;div&gt;high&lt;/div&gt;" style="edgeLabel;html=1;align=center;verticalAlign=middle;resizable=0;points=[];" parent="npFX3f-mWCA9Xx_PFYXD-49" vertex="1" connectable="0">
          <mxGeometry x="0.5385" y="-2" relative="1" as="geometry">
            <mxPoint x="-100" y="-8" as="offset" />
          </mxGeometry>
        </mxCell>
        <mxCell id="npFX3f-mWCA9Xx_PFYXD-52" value="low" style="edgeLabel;html=1;align=center;verticalAlign=middle;resizable=0;points=[];" parent="npFX3f-mWCA9Xx_PFYXD-49" vertex="1" connectable="0">
          <mxGeometry x="-0.7269" y="-2" relative="1" as="geometry">
            <mxPoint x="76" y="-8" as="offset" />
          </mxGeometry>
        </mxCell>
        <mxCell id="npFX3f-mWCA9Xx_PFYXD-53" value="AMO" style="text;html=1;strokeColor=none;fillColor=none;align=center;verticalAlign=middle;whiteSpace=wrap;rounded=0;" parent="1" vertex="1">
          <mxGeometry x="130" y="50" width="60" height="30" as="geometry" />
        </mxCell>
        <mxCell id="npFX3f-mWCA9Xx_PFYXD-63" value="req" style="edgeStyle=orthogonalEdgeStyle;rounded=0;orthogonalLoop=1;jettySize=auto;html=1;exitX=0.75;exitY=1;exitDx=0;exitDy=0;entryX=0.25;entryY=0;entryDx=0;entryDy=0;" parent="1" source="npFX3f-mWCA9Xx_PFYXD-55" target="npFX3f-mWCA9Xx_PFYXD-28" edge="1">
          <mxGeometry x="0.4737" relative="1" as="geometry">
            <Array as="points">
              <mxPoint x="300" y="170" />
              <mxPoint x="300" y="170" />
            </Array>
            <mxPoint as="offset" />
          </mxGeometry>
        </mxCell>
        <mxCell id="b2UCD4XLRwJ0PrpICmSz-1" value="invalid" style="edgeStyle=orthogonalEdgeStyle;rounded=0;orthogonalLoop=1;jettySize=auto;html=1;exitX=0;exitY=0.5;exitDx=0;exitDy=0;entryX=1;entryY=0.25;entryDx=0;entryDy=0;" parent="1" source="npFX3f-mWCA9Xx_PFYXD-55" target="npFX3f-mWCA9Xx_PFYXD-7" edge="1">
          <mxGeometry relative="1" as="geometry">
            <Array as="points">
              <mxPoint x="220" y="70" />
              <mxPoint x="220" y="140" />
            </Array>
          </mxGeometry>
        </mxCell>
        <mxCell id="npFX3f-mWCA9Xx_PFYXD-55" value="&lt;div&gt;ACE&lt;br&gt;&lt;/div&gt;&lt;div&gt;cache&lt;/div&gt;&lt;div&gt;controller&lt;br&gt;&lt;/div&gt;" style="whiteSpace=wrap;html=1;aspect=fixed;fillColor=#d5e8d4;strokeColor=#82b366;" parent="1" vertex="1">
          <mxGeometry x="240" y="30" width="80" height="80" as="geometry" />
        </mxCell>
        <mxCell id="npFX3f-mWCA9Xx_PFYXD-56" value="" style="edgeStyle=orthogonalEdgeStyle;rounded=0;orthogonalLoop=1;jettySize=auto;html=1;startArrow=classic;startFill=1;endArrow=none;endFill=0;exitX=0.25;exitY=1;exitDx=0;exitDy=0;entryX=0.75;entryY=1;entryDx=0;entryDy=0;" parent="1" source="npFX3f-mWCA9Xx_PFYXD-19" target="npFX3f-mWCA9Xx_PFYXD-7" edge="1">
          <mxGeometry relative="1" as="geometry">
            <mxPoint x="200" y="180" as="targetPoint" />
            <mxPoint x="600" y="180" as="sourcePoint" />
            <Array as="points">
              <mxPoint x="620" y="220" />
              <mxPoint x="180" y="220" />
            </Array>
          </mxGeometry>
        </mxCell>
        <mxCell id="npFX3f-mWCA9Xx_PFYXD-58" value="mshr" style="edgeLabel;html=1;align=center;verticalAlign=middle;resizable=0;points=[];" parent="npFX3f-mWCA9Xx_PFYXD-56" vertex="1" connectable="0">
          <mxGeometry x="0.805" y="1" relative="1" as="geometry">
            <mxPoint x="-7" y="-1" as="offset" />
          </mxGeometry>
        </mxCell>
        <mxCell id="npFX3f-mWCA9Xx_PFYXD-59" style="edgeStyle=orthogonalEdgeStyle;rounded=0;orthogonalLoop=1;jettySize=auto;html=1;exitX=0.5;exitY=0;exitDx=0;exitDy=0;endArrow=none;endFill=0;startArrow=classic;startFill=1;entryX=0.5;entryY=1;entryDx=0;entryDy=0;entryPerimeter=0;" parent="1" target="npFX3f-mWCA9Xx_PFYXD-60" edge="1">
          <mxGeometry relative="1" as="geometry">
            <mxPoint x="280" y="-10" as="targetPoint" />
            <mxPoint x="280" y="30" as="sourcePoint" />
          </mxGeometry>
        </mxCell>
        <mxCell id="npFX3f-mWCA9Xx_PFYXD-61" style="edgeStyle=orthogonalEdgeStyle;rounded=0;orthogonalLoop=1;jettySize=auto;html=1;entryX=0.5;entryY=0;entryDx=0;entryDy=0;exitX=0.5;exitY=1;exitDx=0;exitDy=0;" parent="1" source="npFX3f-mWCA9Xx_PFYXD-60" target="npFX3f-mWCA9Xx_PFYXD-55" edge="1">
          <mxGeometry relative="1" as="geometry">
            <mxPoint x="280" y="30" as="targetPoint" />
          </mxGeometry>
        </mxCell>
        <mxCell id="npFX3f-mWCA9Xx_PFYXD-60" value="snoop" style="text;html=1;strokeColor=none;fillColor=none;align=center;verticalAlign=middle;whiteSpace=wrap;rounded=0;" parent="1" vertex="1">
          <mxGeometry x="250" y="-40" width="60" height="30" as="geometry" />
        </mxCell>
      </root>
    </mxGraphModel>
  </diagram>
</mxfile>
